<?xml version="1.0" encoding="utf-8"?>
<!-- Generator: Adobe Illustrator 27.4.0, SVG Export Plug-In . SVG Version: 6.00 Build 0)  -->
<svg version="1.0" id="Слой_1" xmlns="http://www.w3.org/2000/svg" xmlns:xlink="http://www.w3.org/1999/xlink" x="0px" y="0px"
	 viewBox="0 0 286 65" style="enable-background:new 0 0 286 65;" xml:space="preserve">
<style type="text/css">
	.st0{fill:#CCCCCC;}
</style>
<g>
	<path class="st0" d="M44.5,53.1h-8.2V18.9 M58.8,53.1H41.5v-6.3"/>
	<path class="st0" d="M70.5,53.1h-8.2V18.9 M84.8,53.1H67.5v-6.3"/>
	<polyline class="st0" points="128.3,19 129.6,45.1 129.6,53.1 121.4,53.1 	"/>
	<polyline class="st0" points="151.3,19 140.3,53.1 140.3,53.1 128.3,19 128.3,19 140.1,42.7 	"/>
	<polyline class="st0" points="158.2,53.1 150,53.1 150,45.1 151.3,19 	"/>
</g>
<polyline class="st0" points="95.8,53.1 86.9,53.1 104,18.9 "/>
<polyline class="st0" points="113.6,44.7 96.1,44.7 96.1,38.4 "/>
<polyline class="st0" points="104,18.9 119.8,52.9 111,52.9 "/>
<polyline class="st0" points="169.4,53.1 160.6,53.1 177.6,18.9 "/>
<polyline class="st0" points="187.3,44.7 169.8,44.7 169.8,38.4 "/>
<polyline class="st0" points="177.6,18.9 193.5,52.9 184.6,52.9 "/>
<polyline class="st0" points="261.2,33.9 211.7,28.4 214.5,22.9 "/>
<polyline class="st0" points="235.1,6.4 217.2,56 209,56 "/>
<polyline class="st0" points="244.7,6.4 232.4,56 240.6,55.9 "/>
<polyline class="st0" points="258.5,46.2 202.1,49 206.3,40.7 "/>
<g>
</g>
<g>
</g>
<g>
</g>
<g>
</g>
<g>
</g>
<g>
</g>
<g>
</g>
<g>
</g>
<g>
</g>
<g>
</g>
<g>
</g>
<g>
</g>
<g>
</g>
<g>
</g>
<g>
</g>
</svg>
